# xmcd
# Track frame offsets:
# 150
# 15985
# 32252
# 50320
# 65525
# 87007
# 107582
# 116379
# 138017
# 156732
# 187425
# 201562
# 224552
# 254970
#
# Disc length: 3728 seconds
# Revision: 0
# Processed by: cddbd v1.4PL0 Copyright (c) Steve Scherf et al.
# Submitted via: VisiTrax 2.9.3.171 - For more info visit www.synapsa.com
#
DISCID=cd0e8e0e
DTITLE=Piper Road Spring Band - Scrapbook
DYEAR=1997
DGENRE=Blues
TTITLE0=Texas Hambone Blues
TTITLE1=Molly Blue
TTITLE2=Jerusalem Ridge
TTITLE3=Cross To Bear
TTITLE4=Bring It On Home To Me
TTITLE5=Pigs Of Avalon
TTITLE6=Blue Night
TTITLE7=Good Woman's Love
TTITLE8=Rounder
TTITLE9=Cumberland Blues
TTITLE10=Drink 'Til Dawn
TTITLE11=Sally Goodin
TTITLE12=Believe In Me
TTITLE13=Just Like A Dream
EXTD=
EXTT0=
EXTT1=
EXTT2=
EXTT3=
EXTT4=
EXTT5=
EXTT6=
EXTT7=
EXTT8=
EXTT9=
EXTT10=
EXTT11=
EXTT12=
EXTT13=
PLAYORDER=
